# xmcd CD database file
#
# Track frame offsets:
#	150
#	20555
#	38617
#	59042
#
# Disc length: 1026 seconds
#
# Revision: 3
# Processed by: cddbd v1.5PL3 Copyright (c) Steve Scherf et al.
# Submitted via: CDex 1.50Beta7
#
DISCID=2f040004
DTITLE=椎名へきる - この世で一番大切なもの
DYEAR=1998
DGENRE=Reggae
TTITLE0=この世で一番大切なもの
TTITLE1=ガンバレ
TTITLE2=この世で一番大切なもの (Instrumental version)
TTITLE3=ガンバレ (Instrumental version)
EXTD=YEAR: 1998
EXTT0=
EXTT1=
EXTT2=
EXTT3=
PLAYORDER=
